<svg xmlns="http://www.w3.org/2000/svg" xmlns:xlink="http://www.w3.org/1999/xlink" width="649.962" height="156.972" viewBox="0 0 649.962 156.972"><defs><style>.a{fill:#7b7b7b;}.b{fill:#e60019;}.c,.d{fill:#fff;}.d{font-size:60px;font-family:MyriadPro-Regular, Myriad Pro;}.e{clip-path:url(#a);}.f{opacity:0.78;}.g{clip-path:url(#b);}.h{clip-path:url(#c);}.i{fill:none;}</style><clipPath id="a"><rect class="a" width="649.962" height="156.972"/></clipPath><clipPath id="b"><rect class="a" width="672.406" height="169.127"/></clipPath><clipPath id="c"><path class="a" d="M143.387,110.6c8.828-3.569,18.826-7.192,30.205-10.853,85.037-27.051,247.015-56.216,485.683-57.1-21.456-.529-63.623-1.7-121.549-.1-83.952,2.056-201.942,10.1-304.694,28.149q-14.63,2.486-28.776,5.247c90.559-24.308,242.708-47.751,456.317-48.548-21.469-.534-63.641-1.7-121.556-.1-83.947,2.055-201.94,10.1-304.694,28.143C131.5,72.912,43.888,100.382,18.918,128.4c-21.462,22.01-1.531,45.232,64.642,51.444s145.06,1.909,196.289-12.247c0,0-14.182,5.155-80.852,4.022-17.364-.383-45.661-3.241-52.7-4.63-28.375-6.1-71.869-20.88-2.912-56.391" transform="translate(-10.654 -26.475)"/></clipPath></defs><g transform="translate(-361.019 -65.028)"><path class="b" d="M633.8,179.109h11.875l-14.965,48.475s-1.157,3.146,1.618,3.769c3.848.864,5.227-3.912,5.227-3.912l14.591-48.332h13.21l-16.383,50.283c-4.369,8.11-11.819,12.014-21.222,11.252-6.287-1.286-8.241-3.208-9.359-7.176-.779-2.752,3.02-14.456,3.02-14.456l12.388-39.9Z" transform="translate(4.237 -48.403)"/><path class="b" d="M724.089,178.943H754.2l-3.516,11.471h-9.117l-14.814,50.207H713.928l14.532-50.207-8.646-.1,4.276-11.375Z" transform="translate(-50.249 -48.308)"/><path class="c" d="M912.327,216.6c-.139,6.275,0,9.939,0,11.716a3.388,3.388,0,0,1-3.236,3.13,3.082,3.082,0,0,1-2.673-3.122l-.009-21.047c0-9.174.009-15.515.009-15.515,0-2.763,1.389-3.964,3.044-3.964,1.685,0,2.864,1.493,2.864,3.978,0,4.908,0,4.843,0,12.2l12.89-.009c.093-7.991.577-14.794-1.963-19.125s-9.433-5.9-14.184-5.9a16.455,16.455,0,0,0-12.6,5.837c-3.756,5.908-3.485,15.227-3.485,25.183,0,9.9-.244,18.981,3.376,24.942,2.9,4.925,7.6,5.86,12.894,5.86,6.244,0,11.764-3.2,14.056-7.659s1.738-11.816,1.83-16.5Z" transform="translate(-152.257 -48.308)"/><path class="c" d="M999.367,211.173l.043,29.592H987.333l0-61.822h12.035c6.523,0,12.335,1.572,15.2,6.471a23.967,23.967,0,0,1,1.781,10.082c0,5.546-.707,6.986-1.776,8.415-1.18,1.725-4.341,3.445-5.569,4.253,3.525,2.51,4.1,2.808,5.682,4.445,2.147,2.795,1.568,8.776,1.6,13.615l.03,14.54h-11.1c.048-9.633.043-16.445-.179-25.716a6.905,6.905,0,0,0-5.677-3.876h0Zm5.953-15.021c.03-8.541-4.07-7.668-5.825-7.838l-.071,15.127C1004.908,203.291,1005.009,203.322,1005.319,196.152Z" transform="translate(-206.006 -48.308)"/><path class="c" d="M1072.753,178.943H1085.6v61.823h-12.851Z" transform="translate(-254.672 -48.308)"/><path class="b" d="M517.431,240c.206-.478,5.8-13.292,12.426-28.475s12.519-28.688,13.091-30.009l1.04-2.4H553.2c8.64,0,9.214.023,9.215.358,0,.443-8.94,60.789-9.058,61.143-.066.2-1.611.256-6.807.256-3.7,0-6.72-.069-6.719-.154s.642-2.671,1.424-5.748,1.423-5.725,1.423-5.884c0-.24-.635-.279-3.789-.233l-3.788.056-2.463,5.981-2.462,5.982H517.057l.374-.869Zm28.08-21.674c1.123-9.6,4.426-26.33,4.426-26.33s-12.241,26.142-12.012,26.373C540.2,218.35,545.511,218.323,545.511,218.323Z" transform="translate(61.909 -48.403)"/><path class="b" d="M791.875,240.7a10.583,10.583,0,0,1-5.028-2.918,6.9,6.9,0,0,1-2.1-3.148,9.285,9.285,0,0,1-.324-6.7c2.023-7.072,12.331-38.242,13.272-40.131a15.236,15.236,0,0,1,6.6-6.58,23.68,23.68,0,0,1,13.847-1.407c2.933.7,5.55,2.456,6.533,4.382a10.688,10.688,0,0,1,1,4.493c0,1.727-.874,5.349-3.653,15.137-4.158,14.645-6.848,22.422-9.465,27.358-3.226,6.085-6.344,8.412-12.619,9.417a35.572,35.572,0,0,1-8.062.095Zm7.349-8.434a3.289,3.289,0,0,0,1.837-1.163c1.677-1.679,2.27-3.185,6.045-15.357,3.287-10.6,6.323-21.166,6.7-23.3a6.545,6.545,0,0,0,.09-2.646c-.554-2.6-3.468-2.633-5.581-.069-1.549,1.88-2.977,5.737-8.669,23.42-4.283,13.307-4.556,14.357-4.274,16.483.319,2.4,1.278,3.058,3.857,2.631Z" transform="translate(-90.14 -48.542)"/><path class="c" d="M1136.237,230.3a4.167,4.167,0,0,0,4.279-2.595c.336-.7.742-2.543.742-6.878,0-4.4-.036-5.185-1.074-7.238a4.783,4.783,0,0,0-2.38-2.094,11.253,11.253,0,0,0-3.872-.434l.072,19.176,2.236.063Zm-14.808,10.467V178.943h18.213q6.326,0,9.7,4.323,3.609,4.4,3.611,11.335c0,6.363-3.218,10.109-7.358,12.773,4.3,2.284,8.027,6.45,8.9,10.961a25.332,25.332,0,0,1,.415,4.812,21.73,21.73,0,0,1-3.432,12.48,11.285,11.285,0,0,1-9.818,5.139h-20.225m14.808-37.531c2.957,0,3.7-1.184,4.279-1.987.336-.537.742-1.947.742-5.266,0-3.371-.036-3.969-1.074-5.541a4.625,4.625,0,0,0-2.38-1.6,14.6,14.6,0,0,0-3.872-.332l.072,14.681,2.236.048Z" transform="translate(-282.402 -48.308)"/><text class="d" transform="translate(869.66 129.172)"><tspan x="0" y="45">®</tspan></text><g transform="translate(361.019 65.028)"><g class="e"><g class="f" transform="translate(-11.222 -10.805)"><g transform="translate(0 0)"><g class="g"><g transform="translate(11.265 10.804)"><g class="h" transform="translate(0)"><rect class="a" width="663.118" height="163.678" transform="translate(-13.199 -0.786)"/></g></g></g></g></g></g></g><rect class="i" width="649.962" height="156.972" transform="translate(361.019 65.028)"/></g></svg>